# xmcd
#
# Track frame offsets:
#	150
#	20652
#	37202
#	56155
#	77127
#	99012
#	109787
#	129240
#	157587
#	176465
#	191680
#
# Disc length: 2861 seconds
#
# Revision: 0
# Processed by: cddbd v1.5.2PL0 Copyright (c) Steve Scherf et al.
# Submitted via: EasyCDDAExtractor 2010.4.0.0
#
DISCID=830b2b0b
DTITLE=พงษ์สิทธิ์ คำภีร์ - มาตามสัญญา
DYEAR=1992
DGENRE=country
TTITLE0=หวัง
TTITLE1=ไถ่เธอคืนมา
TTITLE2=สุดใจ
TTITLE3=นักแสวงหา
TTITLE4=ยอดชาย
TTITLE5=หาย
TTITLE6=มาตามสัญญา
TTITLE7=เสมอ
TTITLE8=พ่อเป็นกรรมกร
TTITLE9=กลับจากเมือง
TTITLE10=รักบอด 
EXTD=
EXTT0=
EXTT1=
EXTT2=
EXTT3=
EXTT4=
EXTT5=
EXTT6=
EXTT7=
EXTT8=
EXTT9=
EXTT10=
PLAYORDER=
